# xmcd
#
# Track frame offsets:
#	150
#	13665
#	27550
#	40402
#	53349
#	65084
#	76328
#	91133
#	105143
#	118293
#	132319
#	152779
#	175069
#
# Disc length: 2492 seconds
#
# Revision: 2
# Processed by: cddbd v1.5.2PL0 Copyright (c) Steve Scherf et al.
# Submitted via: EZCDAudioConverter 7.1.8.1
#
DISCID=a109ba0d
DTITLE=Dj Maluco and Banda Forro Dance
DYEAR=2004
DGENRE=Latin
TTITLE0=Dança Do Solteiro
TTITLE1=Forró Do Bebum
TTITLE2=Não é Brinquedo Não
TTITLE3=Ele é Boiola
TTITLE4=Tikimdium, Tikimdiotro
TTITLE5=Tobas Bier
TTITLE6=Seu Rabine
TTITLE7=Bombadinha
TTITLE8=Nóis Não Vive é Sem Dinheiro (Eu Não Vivo é Sem Dinheiro)
TTITLE9=Forró Muito Louco
TTITLE10=Dança Da Cintura - Som Do Amor - Dança Da Ondinha
TTITLE11=Forró Da Porrada - Forró Do Chifrudo - Forró Das Gatinhas
TTITLE12=Forró Dos Estados
EXTD=
EXTT0=
EXTT1=
EXTT2=
EXTT3=
EXTT4=
EXTT5=
EXTT6=
EXTT7=
EXTT8=
EXTT9=
EXTT10=
EXTT11=
EXTT12=
PLAYORDER=
